<svg width="591" height="100" viewBox="0 0 591 100" fill="none" xmlns="http://www.w3.org/2000/svg">
<path d="M49.8037 0C59.244 0 68.0713 2.62634 75.5938 7.18848C63.7475 17.5712 56.2668 32.8138 56.2666 49.8037C56.2666 66.7931 63.7473 82.0351 75.5928 92.418C68.0703 96.9801 59.244 99.6084 49.8037 99.6084C22.2979 99.6082 0 77.3096 0 49.8037C0.000230787 22.298 22.298 0.00017526 49.8037 0ZM114.056 0C141.561 0.000327229 163.859 22.2981 163.859 49.8037C163.859 55.8254 162.789 61.5972 160.831 66.9404L186.376 80.8896C188.799 82.2131 189.691 85.2504 188.368 87.6738C187.045 90.0974 184.007 90.9894 181.583 89.666L156.451 75.9434C147.677 90.1436 131.973 99.6082 114.056 99.6084C86.5497 99.6084 64.251 77.3097 64.251 49.8037C64.2512 22.2979 86.5498 0 114.056 0ZM114.056 8.36426C104.122 8.36426 95.0064 11.861 87.8682 17.6885C94.001 24.949 98.0943 33.9872 99.2637 43.9209L103.95 42.1865C105.319 41.6801 106.398 40.601 106.904 39.2324L109.599 31.9502C111.209 27.5971 117.367 27.5971 118.978 31.9502L121.672 39.2324C122.178 40.6008 123.258 41.68 124.626 42.1865L131.909 44.8818C136.262 46.4927 136.262 52.6488 131.909 54.2598L124.626 56.9551C123.258 57.4616 122.178 58.5407 121.672 59.9092L118.978 67.1914C117.367 71.5445 111.209 71.5445 109.599 67.1914L106.904 59.9092C106.398 58.5406 105.319 57.4615 103.95 56.9551L99.3145 55.2393C98.2167 65.3491 94.0921 74.5495 87.8672 81.9189C95.0056 87.747 104.122 91.2441 114.056 91.2441C136.942 91.2438 155.495 72.6902 155.495 49.8037C155.495 26.9175 136.942 8.36461 114.056 8.36426Z" fill="white"/>
<path d="M231.196 26.8762V35.6442H212.892V45.1162H226.588V53.6282H212.892V71.8042H201.948V26.8762H231.196ZM242.552 32.3802C240.632 32.3802 239.054 31.8255 237.816 30.7162C236.622 29.5642 236.024 28.1562 236.024 26.4922C236.024 24.7855 236.622 23.3775 237.816 22.2682C239.054 21.1162 240.632 20.5402 242.552 20.5402C244.43 20.5402 245.966 21.1162 247.16 22.2682C248.398 23.3775 249.016 24.7855 249.016 26.4922C249.016 28.1562 248.398 29.5642 247.16 30.7162C245.966 31.8255 244.43 32.3802 242.552 32.3802ZM247.992 36.0922V71.8042H237.048V36.0922H247.992ZM277.783 35.7082C281.965 35.7082 285.293 37.0735 287.767 39.8042C290.285 42.4922 291.543 46.2042 291.543 50.9402V71.8042H280.663V52.4122C280.663 50.0229 280.045 48.1669 278.807 46.8442C277.57 45.5215 275.906 44.8602 273.815 44.8602C271.725 44.8602 270.061 45.5215 268.823 46.8442C267.586 48.1669 266.967 50.0229 266.967 52.4122V71.8042H256.023V36.0922H266.967V40.8282C268.077 39.2495 269.57 38.0122 271.447 37.1162C273.325 36.1775 275.437 35.7082 277.783 35.7082ZM297.072 53.8842C297.072 50.2149 297.755 46.9935 299.12 44.2202C300.528 41.4469 302.427 39.3135 304.816 37.8202C307.206 36.3269 309.872 35.5802 312.816 35.5802C315.163 35.5802 317.296 36.0709 319.216 37.0522C321.179 38.0335 322.715 39.3562 323.824 41.0202V24.4442H334.768V71.8042H323.824V66.6842C322.8 68.3909 321.328 69.7562 319.408 70.7802C317.531 71.8042 315.334 72.3162 312.816 72.3162C309.872 72.3162 307.206 71.5695 304.816 70.0762C302.427 68.5402 300.528 66.3855 299.12 63.6122C297.755 60.7962 297.072 57.5535 297.072 53.8842ZM323.824 53.9482C323.824 51.2175 323.056 49.0629 321.52 47.4842C320.027 45.9055 318.192 45.1162 316.016 45.1162C313.84 45.1162 311.984 45.9055 310.448 47.4842C308.955 49.0202 308.208 51.1535 308.208 53.8842C308.208 56.6149 308.955 58.7909 310.448 60.4122C311.984 61.9909 313.84 62.7802 316.016 62.7802C318.192 62.7802 320.027 61.9909 321.52 60.4122C323.056 58.8335 323.824 56.6789 323.824 53.9482ZM377.696 72.2522C373.472 72.2522 369.59 71.2709 366.048 69.3082C362.55 67.3455 359.755 64.6149 357.664 61.1162C355.616 57.5749 354.592 53.6069 354.592 49.2122C354.592 44.8175 355.616 40.8709 357.664 37.3722C359.755 33.8735 362.55 31.1429 366.048 29.1802C369.59 27.2175 373.472 26.2362 377.696 26.2362C381.92 26.2362 385.782 27.2175 389.28 29.1802C392.822 31.1429 395.595 33.8735 397.6 37.3722C399.648 40.8709 400.672 44.8175 400.672 49.2122C400.672 53.6069 399.648 57.5749 397.6 61.1162C395.552 64.6149 392.779 67.3455 389.28 69.3082C385.782 71.2709 381.92 72.2522 377.696 72.2522ZM377.696 62.2682C381.28 62.2682 384.139 61.0735 386.272 58.6842C388.448 56.2949 389.536 53.1375 389.536 49.2122C389.536 45.2442 388.448 42.0869 386.272 39.7402C384.139 37.3509 381.28 36.1562 377.696 36.1562C374.07 36.1562 371.168 37.3295 368.992 39.6762C366.859 42.0229 365.792 45.2015 365.792 49.2122C365.792 53.1802 366.859 56.3589 368.992 58.7482C371.168 61.0949 374.07 62.2682 377.696 62.2682ZM417.805 42.0442C419.085 40.0815 420.685 38.5455 422.605 37.4362C424.525 36.2842 426.658 35.7082 429.005 35.7082V47.2922H425.997C423.266 47.2922 421.218 47.8895 419.853 49.0842C418.488 50.2362 417.805 52.2842 417.805 55.2282V71.8042H406.861V36.0922H417.805V42.0442ZM439.84 32.3802C437.92 32.3802 436.341 31.8255 435.104 30.7162C433.909 29.5642 433.312 28.1562 433.312 26.4922C433.312 24.7855 433.909 23.3775 435.104 22.2682C436.341 21.1162 437.92 20.5402 439.84 20.5402C441.717 20.5402 443.253 21.1162 444.448 22.2682C445.685 23.3775 446.304 24.7855 446.304 26.4922C446.304 28.1562 445.685 29.5642 444.448 30.7162C443.253 31.8255 441.717 32.3802 439.84 32.3802ZM445.28 36.0922V71.8042H434.336V36.0922H445.28ZM466.879 35.5802C469.396 35.5802 471.594 36.0922 473.471 37.1162C475.391 38.1402 476.863 39.4842 477.887 41.1482V36.0922H488.831V71.7402C488.831 75.0255 488.17 77.9909 486.847 80.6362C485.567 83.3242 483.583 85.4575 480.895 87.0362C478.25 88.6149 474.943 89.4042 470.975 89.4042C465.684 89.4042 461.396 88.1455 458.111 85.6282C454.826 83.1535 452.948 79.7829 452.479 75.5162H463.295C463.636 76.8815 464.447 77.9482 465.727 78.7162C467.007 79.5269 468.586 79.9322 470.463 79.9322C472.724 79.9322 474.516 79.2709 475.839 77.9482C477.204 76.6682 477.887 74.5989 477.887 71.7402V66.6842C476.82 68.3482 475.348 69.7135 473.471 70.7802C471.594 71.8042 469.396 72.3162 466.879 72.3162C463.935 72.3162 461.268 71.5695 458.879 70.0762C456.49 68.5402 454.591 66.3855 453.183 63.6122C451.818 60.7962 451.135 57.5535 451.135 53.8842C451.135 50.2149 451.818 46.9935 453.183 44.2202C454.591 41.4469 456.49 39.3135 458.879 37.8202C461.268 36.3269 463.935 35.5802 466.879 35.5802ZM477.887 53.9482C477.887 51.2175 477.119 49.0629 475.583 47.4842C474.09 45.9055 472.255 45.1162 470.079 45.1162C467.903 45.1162 466.047 45.9055 464.511 47.4842C463.018 49.0202 462.271 51.1535 462.271 53.8842C462.271 56.6149 463.018 58.7909 464.511 60.4122C466.047 61.9909 467.903 62.7802 470.079 62.7802C472.255 62.7802 474.09 61.9909 475.583 60.4122C477.119 58.8335 477.887 56.6789 477.887 53.9482ZM502.352 32.3802C500.432 32.3802 498.854 31.8255 497.616 30.7162C496.422 29.5642 495.824 28.1562 495.824 26.4922C495.824 24.7855 496.422 23.3775 497.616 22.2682C498.854 21.1162 500.432 20.5402 502.352 20.5402C504.23 20.5402 505.766 21.1162 506.96 22.2682C508.198 23.3775 508.816 24.7855 508.816 26.4922C508.816 28.1562 508.198 29.5642 506.96 30.7162C505.766 31.8255 504.23 32.3802 502.352 32.3802ZM507.792 36.0922V71.8042H496.848V36.0922H507.792ZM537.583 35.7082C541.765 35.7082 545.093 37.0735 547.567 39.8042C550.085 42.4922 551.343 46.2042 551.343 50.9402V71.8042H540.463V52.4122C540.463 50.0229 539.845 48.1669 538.607 46.8442C537.37 45.5215 535.706 44.8602 533.615 44.8602C531.525 44.8602 529.861 45.5215 528.623 46.8442C527.386 48.1669 526.767 50.0229 526.767 52.4122V71.8042H515.823V36.0922H526.767V40.8282C527.877 39.2495 529.37 38.0122 531.247 37.1162C533.125 36.1775 535.237 35.7082 537.583 35.7082ZM573.576 72.3162C570.462 72.3162 567.688 71.7829 565.256 70.7162C562.824 69.6495 560.904 68.1989 559.496 66.3642C558.088 64.4869 557.299 62.3962 557.128 60.0922H567.944C568.072 61.3295 568.648 62.3322 569.672 63.1002C570.696 63.8682 571.955 64.2522 573.448 64.2522C574.814 64.2522 575.859 63.9962 576.584 63.4842C577.352 62.9295 577.736 62.2255 577.736 61.3722C577.736 60.3482 577.203 59.6015 576.136 59.1322C575.07 58.6202 573.342 58.0655 570.952 57.4682C568.392 56.8709 566.259 56.2522 564.552 55.6122C562.846 54.9295 561.374 53.8842 560.136 52.4762C558.899 51.0255 558.28 49.0842 558.28 46.6522C558.28 44.6042 558.835 42.7482 559.944 41.0842C561.096 39.3775 562.76 38.0335 564.936 37.0522C567.155 36.0709 569.779 35.5802 572.808 35.5802C577.288 35.5802 580.808 36.6895 583.368 38.9082C585.971 41.1269 587.464 44.0709 587.848 47.7402H577.736C577.566 46.5029 577.011 45.5215 576.072 44.7962C575.176 44.0709 573.982 43.7082 572.488 43.7082C571.208 43.7082 570.227 43.9642 569.544 44.4762C568.862 44.9455 568.52 45.6069 568.52 46.4602C568.52 47.4842 569.054 48.2522 570.12 48.7642C571.23 49.2762 572.936 49.7882 575.24 50.3002C577.886 50.9829 580.04 51.6655 581.704 52.3482C583.368 52.9882 584.819 54.0549 586.056 55.5482C587.336 56.9989 587.998 58.9615 588.04 61.4362C588.04 63.5269 587.443 65.4042 586.248 67.0682C585.096 68.6895 583.411 69.9695 581.192 70.9082C579.016 71.8469 576.478 72.3162 573.576 72.3162Z" fill="white"/>
</svg>
